<svg xmlns="http://www.w3.org/2000/svg" xmlns:xlink="http://www.w3.org/1999/xlink" preserveAspectRatio="xMidYMid meet" version="1.0" viewBox="0.0 0.0 359.5 382.6" zoomAndPan="magnify" style="fill: rgb(0, 0, 0);" original_string_length="1907" width="162.11148648648654px" height="172.45902817711337px"><g id="__id0_snpq4x8pfw"><path d="M357.9,67c0.9,0,1.6-0.7,1.6-1.6V35.9c0-0.9-0.7-1.6-1.6-1.6h-59.1V1.6c0-0.9-0.7-1.6-1.6-1.6h-45.9 c-0.9,0-1.6,0.7-1.6,1.6v32.6H109.9V1.6c0-0.9-0.7-1.6-1.6-1.6H62.4c-0.9,0-1.6,0.7-1.6,1.6v32.6H1.6c-0.9,0-1.6,0.7-1.6,1.6v29.5 C0,66.3,0.7,67,1.6,67h59.1v14.4H1.6c-0.9,0-1.6,0.7-1.6,1.6v29.5c0,0.9,0.7,1.6,1.6,1.6h59.1v14.9H1.6c-0.9,0-1.6,0.7-1.6,1.6V221 c0,0.9,0.7,1.6,1.6,1.6h59.1v15.5H1.6c-0.9,0-1.6,0.7-1.6,1.6V272c0,0.9,0.7,1.6,1.6,1.6h59.1v15.5H1.6c-0.9,0-1.6,0.7-1.6,1.6V381 c0,0.9,0.7,1.6,1.6,1.6H169c0.9,0,1.6-0.7,1.6-1.6v-90.2c0-0.9-0.7-1.6-1.6-1.6h-59.1v-15.5h139.7v15.5h-59.1 c-0.9,0-1.6,0.7-1.6,1.6V381c0,0.9,0.7,1.6,1.6,1.6h167.3c0.9,0,1.6-0.7,1.6-1.6v-90.2c0-0.9-0.7-1.6-1.6-1.6h-59.1v-15.5h59.1 c0.9,0,1.6-0.7,1.6-1.6v-32.2c0-0.9-0.7-1.6-1.6-1.6h-59.1v-15.5h59.1c0.9,0,1.6-0.7,1.6-1.6v-90.2c0-0.9-0.7-1.6-1.6-1.6h-59.1 v-14.9h59.1c0.9,0,1.6-0.7,1.6-1.6V83.1c0-0.9-0.7-1.6-1.6-1.6h-59.1V67H357.9z M109.9,67h139.7v14.4H109.9V67z M126.6,321 c0.9,0,1.6,0.7,1.6,1.6v26.6c0,0.9-0.7,1.6-1.6,1.6H44.1c-0.9,0-1.6-0.7-1.6-1.6v-26.6c0-0.9,0.7-1.6,1.6-1.6H126.6z M44.1,190.9 c-0.9,0-1.6-0.7-1.6-1.6v-26.6c0-0.9,0.7-1.6,1.6-1.6h82.5c0.9,0,1.6,0.7,1.6,1.6v26.6c0,0.9-0.7,1.6-1.6,1.6H44.1z M109.9,238.2 v-15.5H169c0.9,0,1.6-0.7,1.6-1.6v-90.2c0-0.9-0.7-1.6-1.6-1.6h-59.1v-14.9h139.7v14.9h-59.1c-0.9,0-1.6,0.7-1.6,1.6V221 c0,0.9,0.7,1.6,1.6,1.6h59.1v15.5H109.9z M315.5,321c0.9,0,1.6,0.7,1.6,1.6v26.6c0,0.9-0.7,1.6-1.6,1.6H233c-0.9,0-1.6-0.7-1.6-1.6 v-26.6c0-0.9,0.7-1.6,1.6-1.6H315.5z M315.5,161c0.9,0,1.6,0.7,1.6,1.6v26.6c0,0.9-0.7,1.6-1.6,1.6H233c-0.9,0-1.6-0.7-1.6-1.6 v-26.6c0-0.9,0.7-1.6,1.6-1.6H315.5z" style="fill: rgb(95, 8, 6);"/></g></svg>